<svg width="64" height="64" viewBox="0 0 64 64" fill="none" xmlns="http://www.w3.org/2000/svg">
<rect x="50" y="4" width="5" height="55" rx="1" fill="#F5B50F"/>
<rect x="31" y="10" width="6" height="20" fill="#F5B50F"/>
<rect x="22" y="10" width="6" height="20" fill="#F5B50F"/>
<rect x="40" y="10" width="6" height="20" fill="#F5B50F"/>
<rect x="31" y="37" width="6" height="20" fill="#F5B50F"/>
<rect x="24.7761" y="37" width="6" height="20" transform="rotate(10.8831 24.7761 37)" fill="#F5B50F"/>
<rect x="40" y="37" width="6" height="20" fill="#F5B50F"/>
<rect x="13" y="4" width="5" height="55" rx="1" fill="#F5B50F"/>
<rect x="49" y="57" width="2" height="30" transform="rotate(90 49 57)" fill="#F5B50F"/>
<rect x="49" y="4" width="1" height="30" transform="rotate(90 49 4)" fill="#F5B50F"/>
<rect x="49" y="30" width="2" height="30" transform="rotate(90 49 30)" fill="#F5B50F"/>
</svg>
