<svg width="41" height="41" viewBox="0 0 41 41" fill="none" xmlns="http://www.w3.org/2000/svg">
<rect x="31.5564" y="5.12134" width="6" height="18" transform="rotate(45 31.5564 5.12134)" fill="black"/>
<circle cx="33.6777" cy="7.24264" r="3" transform="rotate(45 33.6777 7.24264)" fill="black"/>
<path d="M18.1213 22.799L22.0798 22.5148L18.4055 18.8406L18.1213 22.799Z" fill="black"/>
<path d="M30.2 31.875V18.125L32 16.25V32.5L29.6 35H10.4L8 32.5V11.875L9.8 10H24.2L22.4 11.875H11L9.8 13.125V31.875L11 33.125H29L30.2 31.875Z" stroke="black"/>
<path d="M31.5 17L31 18V33L29 34L30.5 32L29 34.5L28 34L29 33L27 34H11L28 34.5L10 34L9 32L11 33.5L8.5 32L9 31V13M9 12L9.5 32M9 12L10 11H11M9 12V13M11 11L9.5 12.5L9 13M11 11H22.5L23 10.5" stroke="black"/>
</svg>
