<svg width="64" height="64" viewBox="0 0 64 64" fill="none" xmlns="http://www.w3.org/2000/svg">
<line x1="21" y1="20.5" x2="23" y2="20.5" stroke="black"/>
<line x1="46" y1="47.5" x2="48" y2="47.5" stroke="black"/>
<line x1="46.5" y1="47" x2="46.5" y2="37" stroke="black"/>
<line x1="47.5" y1="47" x2="47.5" y2="37" stroke="black"/>
<line x1="46" y1="47.5" x2="48" y2="47.5" stroke="black"/>
<line x1="46.5" y1="45" x2="46.5" y2="15" stroke="black"/>
<line x1="47.5" y1="45" x2="47.5" y2="15" stroke="black"/>
<line x1="22.5" y1="47" x2="22.5" y2="49" stroke="black"/>
<line x1="23" y1="47.5" x2="41" y2="47.5" stroke="black"/>
<line x1="23" y1="48.5" x2="41" y2="48.5" stroke="black"/>
<line x1="22.5" y1="14" x2="22.5" y2="16" stroke="black"/>
<line x1="23" y1="14.5" x2="41" y2="14.5" stroke="black"/>
<line x1="23" y1="15.5" x2="41" y2="15.5" stroke="black"/>
<line x1="29" y1="14.5" x2="47" y2="14.5" stroke="black"/>
<line x1="29" y1="15.5" x2="47" y2="15.5" stroke="black"/>
<circle cx="47" cy="15" r="1" fill="black"/>
<line x1="29" y1="47.5" x2="47" y2="47.5" stroke="black"/>
<line x1="29" y1="48.5" x2="47" y2="48.5" stroke="black"/>
<line x1="21" y1="47.5" x2="23" y2="47.5" stroke="black"/>
<line x1="21.5" y1="47" x2="21.5" y2="39" stroke="black"/>
<line x1="23.5" y1="47" x2="23.5" y2="39" stroke="black"/>
<circle cx="22" cy="15" r="1" fill="black"/>
<circle cx="22" cy="48" r="1" fill="black"/>
<circle cx="47" cy="48" r="1" fill="black"/>
<path d="M7.93934 30.9393C7.35355 31.5251 7.35355 32.4749 7.93934 33.0607L17.4853 42.6066C18.0711 43.1924 19.0208 43.1924 19.6066 42.6066C20.1924 42.0208 20.1924 41.0711 19.6066 40.4853L11.1213 32L19.6066 23.5147C20.1924 22.9289 20.1924 21.9792 19.6066 21.3934C19.0208 20.8076 18.0711 20.8076 17.4853 21.3934L7.93934 30.9393ZM31 32V30.5L9 30.5V32V33.5H31V32Z" fill="black"/>
<rect x="22" y="16" width="1" height="9" fill="#D9D9D9"/>
<rect x="21" y="14" width="3" height="11" rx="1" fill="black"/>
<rect x="21" y="38" width="3" height="11" rx="1" fill="black"/>
<rect x="21" y="46" width="27" height="3" rx="1" fill="black"/>
<rect x="21" y="14" width="27" height="3" rx="1" fill="black"/>
<rect x="21" y="46" width="27" height="3" rx="1" fill="black"/>
<rect x="48" y="14" width="35" height="3" rx="1" transform="rotate(90 48 14)" fill="black"/>
</svg>
