<svg width="52" height="55" viewBox="0 0 52 55" fill="none" xmlns="http://www.w3.org/2000/svg">
<path d="M29.1233 13.1522H5.18858C1.83772 13.1522 1 15.3522 1 16.4522V34.6022C1 39.4422 5.38803 40.6522 7.58205 40.6522H9.97552H12.9674H20.7462L12.369 36.2522V19.7522H35.107V17.5522C35.107 14.0322 31.1179 13.1522 29.1233 13.1522Z" fill="#4591B4" stroke="#2B72A8"/>
<rect x="0.0725766" y="0.742199" width="5.71087" height="3.73818" rx="1" transform="matrix(0.735652 0.67736 -0.590499 0.807039 33.4255 13.2463)" fill="#4591B4" stroke="#2B72A8"/>
<path d="M30.4508 14.2764C30.5085 14.2846 30.5672 14.2946 30.6249 14.2961C30.6632 14.2971 30.7007 14.2933 30.7391 14.2959C30.8052 14.3003 30.8666 14.3139 30.9316 14.3228C30.9926 14.3311 31.0605 14.3464 31.1154 14.3725C31.196 14.4109 31.2728 14.4576 31.3622 14.4791C31.3807 14.4835 31.405 14.493 31.4238 14.4927C31.4584 14.4921 31.4945 14.4776 31.5292 14.4743C31.5974 14.4676 31.6769 14.4827 31.7456 14.4992C31.7981 14.5119 31.8457 14.54 31.8985 14.5527C31.932 14.5607 31.9655 14.5688 31.999 14.5768C32.0594 14.5914 32.1141 14.6138 32.1737 14.63C32.1983 14.6367 32.222 14.6647 32.2393 14.6778C32.2973 14.7218 32.3626 14.7606 32.4264 14.799C32.4807 14.8316 32.539 14.8628 32.5912 14.8969C32.724 14.9835 32.8583 15.0786 32.9516 15.1916C32.9641 15.2067 32.9809 15.2194 32.9937 15.235C33.0135 15.2589 33.0233 15.2775 33.0401 15.3031C33.0757 15.3577 33.0846 15.4123 33.0813 15.4696C33.0738 15.5976 33.017 15.7318 32.9394 15.8373C32.8797 15.9184 32.8136 15.9932 32.7241 16.0551C32.605 16.1376 32.4311 16.1727 32.2667 16.1823C32.0504 16.195 31.8261 16.186 31.6062 16.1768C31.4793 16.1715 31.3496 16.1708 31.2223 16.1485C31.012 16.1118 30.7861 16.0525 30.5951 15.9616C30.4081 15.8725 30.2525 15.7362 30.2072 15.5718C30.1773 15.4636 30.1781 15.3143 30.3111 15.2627C30.4571 15.2061 30.655 15.1875 30.8272 15.2036C31.0149 15.2212 31.1997 15.3244 31.3667 15.3984C31.4927 15.4544 31.6587 15.5165 31.7291 15.6249C31.7502 15.6574 31.7522 15.6955 31.7399 15.7267C31.706 15.813 31.5421 15.7809 31.4516 15.7668C31.3147 15.7453 31.1577 15.7179 31.033 15.6562C30.9801 15.63 30.9655 15.5589 30.9676 15.5187C30.9748 15.3827 31.0971 15.3083 31.2519 15.2716C31.354 15.2474 31.4698 15.2403 31.5814 15.2529C31.6851 15.2646 31.7555 15.3107 31.8274 15.3716C31.9685 15.4911 32.0875 15.6466 32.1309 15.8002C32.1801 15.9743 32.0455 16.104 31.8624 16.1691C31.675 16.2358 31.4441 16.2226 31.2439 16.134C31.1494 16.0922 31.0674 16.0308 30.992 15.9699C30.8625 15.8653 30.7396 15.7524 30.6385 15.6312C30.5057 15.4719 30.4104 15.2916 30.3636 15.1127C30.3341 15.0001 30.3292 14.8893 30.4232 14.8069C30.5306 14.7129 30.7312 14.7115 30.8937 14.738" stroke="#4591B4"/>
<path d="M17.4512 40.6522H36.9144C37.6095 40.6521 38.3047 40.1087 38.3047 39.5653V37.3913C38.3047 36.5218 37.3778 36.3044 36.9144 36.3044H18.8414C14.3927 36.3044 13.2805 34.1305 13.2805 33.0435V23.2609C13.2805 21.5218 15.1341 21.087 16.061 21.087H35.5242C36.6364 21.087 36.9144 20.3623 36.9144 20V17.8261C36.9144 16.9565 35.0608 16.7391 34.134 16.7391H17.4512C8.55371 16.7391 6.32935 22.5362 6.32935 25.4348V31.9565C6.32935 38.913 13.7439 40.6522 17.4512 40.6522Z" fill="#0C4A90"/>
<path d="M36.9144 26.5218C36.9144 25.6522 35.8072 25.4377 35.3438 25.4377H17.2708C15.6025 25.4377 15.3658 26.1594 15.3658 26.5218V28.6957C15.3658 29.5652 15.8293 29.7826 16.061 29.7826H35.5242C36.6364 29.7826 36.9144 29.058 36.9144 28.6957V26.5218Z" fill="#0C4A90"/>
<path d="M17.4512 40.6522H36.9144C37.6095 40.6521 38.3047 40.1087 38.3047 39.5653V37.3913C38.3047 36.5218 37.3778 36.3044 36.9144 36.3044H18.8414C14.3927 36.3044 13.2805 34.1305 13.2805 33.0435V23.2609C13.2805 21.5218 15.1341 21.087 16.061 21.087H35.5242C36.6364 21.087 36.9144 20.3623 36.9144 20V17.8261C36.9144 16.9565 35.0608 16.7391 34.134 16.7391H17.4512C8.55371 16.7391 6.32935 22.5362 6.32935 25.4348V31.9565C6.32935 38.913 13.7439 40.6522 17.4512 40.6522Z" stroke="#0C4A90"/>
<path d="M36.9144 26.5218C36.9144 25.6522 35.8072 25.4377 35.3438 25.4377H17.2708C15.6025 25.4377 15.3658 26.1594 15.3658 26.5218V28.6957C15.3658 29.5652 15.8293 29.7826 16.061 29.7826H35.5242C36.6364 29.7826 36.9144 29.058 36.9144 28.6957V26.5218Z" stroke="#0C4A90"/>
</svg>
