<svg width="244" height="56" viewBox="0 0 244 56" fill="none" xmlns="http://www.w3.org/2000/svg">
<path d="M27.386 17H4.92982C1.78596 17 1 18.84 1 19.76V34.94C1 38.988 5.11696 40 7.17544 40H9.42105H12.2281H19.5263L11.6667 36.32V22.52H33V20.68C33 17.736 29.2573 17 27.386 17Z" fill="#4591B4" stroke="#2B72A8"/>
<rect x="31.0624" y="17.7037" width="4.99235" height="3.13753" rx="1" transform="rotate(39.3791 31.0624 17.7037)" fill="#4591B4" stroke="#2B72A8"/>
<rect x="109" y="6" width="135" height="46" rx="5" fill="#2B72A8"/>
<path d="M28.9417 18.5365C28.9827 18.5313 29.0247 18.5275 29.0647 18.5161C29.0911 18.5086 29.1163 18.4969 29.1431 18.4908C29.1893 18.4802 29.2338 18.4792 29.2799 18.473C29.3232 18.4671 29.3725 18.4662 29.4145 18.4781C29.4763 18.4954 29.5368 18.5212 29.6019 18.5212C29.6153 18.5212 29.6336 18.5245 29.6465 18.5201C29.6702 18.5119 29.6926 18.4907 29.7159 18.48C29.7617 18.4589 29.8188 18.4552 29.8688 18.4552C29.907 18.4552 29.9444 18.4704 29.9828 18.4704C30.0071 18.4704 30.0315 18.4704 30.0559 18.4704C30.0998 18.4704 30.1412 18.4789 30.1848 18.4806C30.2028 18.4813 30.2238 18.5017 30.2378 18.5099C30.285 18.5374 30.3363 18.5586 30.3865 18.5796C30.4293 18.5976 30.4745 18.6133 30.516 18.633C30.6217 18.683 30.7297 18.7405 30.8126 18.8234C30.8237 18.8345 30.8373 18.8425 30.8487 18.8539C30.8663 18.8715 30.8761 18.8863 30.8919 18.9061C30.9254 18.9482 30.9406 18.9962 30.9477 19.0494C30.9638 19.1683 30.9469 19.3037 30.9111 19.4173C30.8834 19.5048 30.8503 19.5878 30.799 19.6642C30.7308 19.766 30.617 19.8364 30.5056 19.8815C30.3589 19.9408 30.2033 19.9819 30.0505 20.022C29.9624 20.0451 29.8731 20.073 29.7819 20.0807C29.6312 20.0934 29.4661 20.0889 29.3197 20.0477C29.1764 20.0073 29.0469 19.9168 28.9885 19.7762C28.95 19.6837 28.9259 19.5469 29.0088 19.4704C29.0999 19.3863 29.2328 19.3257 29.3539 19.3025C29.4858 19.2772 29.63 19.331 29.7571 19.362C29.853 19.3855 29.9774 19.4058 30.0437 19.4896C30.0636 19.5147 30.0713 19.5491 30.068 19.5804C30.0589 19.6669 29.941 19.6736 29.8764 19.6806C29.7787 19.6911 29.6662 19.7006 29.5703 19.6715C29.5296 19.6592 29.5077 19.5974 29.5026 19.5601C29.485 19.434 29.5568 19.3389 29.6572 19.2712C29.7234 19.2265 29.8018 19.1946 29.8806 19.1815C29.9538 19.1693 30.0099 19.196 30.0694 19.2359C30.1862 19.3143 30.2938 19.4304 30.349 19.5615C30.4116 19.7101 30.3406 19.8585 30.2254 19.9585C30.1076 20.0608 29.9467 20.0996 29.7943 20.0626C29.7225 20.0452 29.6559 20.007 29.594 19.9678C29.4876 19.9006 29.3844 19.8243 29.2949 19.7356C29.1772 19.619 29.0819 19.4749 29.0201 19.3214C28.9812 19.2248 28.9594 19.1244 29.0105 19.0282C29.0687 18.9185 29.2065 18.8731 29.3226 18.8615" stroke="#4591B4"/>
<path d="M16.4348 40H34.6957C35.3478 40 36 39.5455 36 39.0909V37.2727C36 36.5455 35.1304 36.3637 34.6957 36.3637H17.7391C13.5652 36.3637 12.5217 34.5455 12.5217 33.6364V25.4546C12.5217 24 14.2609 23.6364 15.1304 23.6364H33.3913C34.4348 23.6364 34.6957 23.0303 34.6957 22.7273V20.9091C34.6957 20.1818 32.9565 20 32.087 20H16.4348C8.08696 20 6 24.8485 6 27.2727V32.7273C6 38.5455 12.9565 40 16.4348 40Z" fill="#0C4A90"/>
<path d="M34.6957 28.1818C34.6957 27.4546 33.6568 27.2752 33.222 27.2752H16.2655C14.7003 27.2752 14.4783 27.8788 14.4783 28.1818V30C14.4783 30.7273 14.913 30.9091 15.1304 30.9091H33.3913C34.4348 30.9091 34.6957 30.303 34.6957 30V28.1818Z" fill="#0C4A90"/>
<path d="M16.4348 40H34.6957C35.3478 40 36 39.5455 36 39.0909V37.2727C36 36.5455 35.1304 36.3637 34.6957 36.3637H17.7391C13.5652 36.3637 12.5217 34.5455 12.5217 33.6364V25.4546C12.5217 24 14.2609 23.6364 15.1304 23.6364H33.3913C34.4348 23.6364 34.6957 23.0303 34.6957 22.7273V20.9091C34.6957 20.1818 32.9565 20 32.087 20H16.4348C8.08696 20 6 24.8485 6 27.2727V32.7273C6 38.5455 12.9565 40 16.4348 40Z" stroke="#0C4A90"/>
<path d="M34.6957 28.1818C34.6957 27.4546 33.6568 27.2752 33.222 27.2752H16.2655C14.7003 27.2752 14.4783 27.8788 14.4783 28.1818V30C14.4783 30.7273 14.913 30.9091 15.1304 30.9091H33.3913C34.4348 30.9091 34.6957 30.303 34.6957 30V28.1818Z" stroke="#0C4A90"/>
<path d="M50.32 37.56H50.24C49.5733 38.6 48.68 39.3467 47.56 39.8C46.4667 40.2533 45.3067 40.48 44.08 40.48C43.1733 40.48 42.2933 40.3467 41.44 40.08C40.6133 39.84 39.88 39.4667 39.24 38.96C38.6 38.4533 38.0933 37.8267 37.72 37.08C37.3467 36.3333 37.16 35.4667 37.16 34.48C37.16 33.36 37.36 32.4133 37.76 31.64C38.1867 30.8667 38.7467 30.2267 39.44 29.72C40.16 29.2133 40.9733 28.8267 41.88 28.56C42.7867 28.2667 43.72 28.0533 44.68 27.92C45.6667 27.7867 46.64 27.7067 47.6 27.68C48.5867 27.6533 49.4933 27.64 50.32 27.64C50.32 26.5733 49.9333 25.7333 49.16 25.12C48.4133 24.48 47.52 24.16 46.48 24.16C45.4933 24.16 44.5867 24.3733 43.76 24.8C42.96 25.2 42.24 25.76 41.6 26.48L38.4 23.2C39.52 22.16 40.8267 21.3867 42.32 20.88C43.8133 20.3467 45.36 20.08 46.96 20.08C48.72 20.08 50.16 20.3067 51.28 20.76C52.4267 21.1867 53.3333 21.8267 54 22.68C54.6933 23.5333 55.1733 24.5867 55.44 25.84C55.7067 27.0667 55.84 28.4933 55.84 30.12V40H50.32V37.56ZM48.84 31.48C48.3867 31.48 47.8133 31.5067 47.12 31.56C46.4533 31.5867 45.8 31.6933 45.16 31.88C44.5467 32.0667 44.0133 32.3467 43.56 32.72C43.1333 33.0933 42.92 33.6133 42.92 34.28C42.92 35 43.2267 35.5333 43.84 35.88C44.4533 36.2267 45.0933 36.4 45.76 36.4C46.3467 36.4 46.9067 36.32 47.44 36.16C48 36 48.4933 35.7733 48.92 35.48C49.3467 35.1867 49.68 34.8133 49.92 34.36C50.1867 33.9067 50.32 33.3733 50.32 32.76V31.48H48.84ZM69.8044 26.28C68.9244 25.1867 67.7644 24.64 66.3244 24.64C65.8177 24.64 65.3244 24.76 64.8444 25C64.3644 25.24 64.1244 25.6533 64.1244 26.24C64.1244 26.72 64.3644 27.08 64.8444 27.32C65.351 27.5333 65.9777 27.7333 66.7244 27.92C67.4977 28.08 68.311 28.2667 69.1644 28.48C70.0444 28.6667 70.8577 28.9733 71.6044 29.4C72.3777 29.8267 73.0044 30.4133 73.4844 31.16C73.991 31.88 74.2444 32.8533 74.2444 34.08C74.2444 35.3333 73.9644 36.3733 73.4044 37.2C72.871 38 72.1777 38.6533 71.3244 39.16C70.471 39.64 69.511 39.9733 68.4444 40.16C67.3777 40.3733 66.3244 40.48 65.2844 40.48C63.9244 40.48 62.551 40.2933 61.1644 39.92C59.7777 39.52 58.6044 38.8267 57.6444 37.84L61.2844 33.8C61.8444 34.4933 62.4577 35.0267 63.1244 35.4C63.8177 35.7467 64.6177 35.92 65.5244 35.92C66.2177 35.92 66.8444 35.8267 67.4044 35.64C67.9644 35.4267 68.2444 35.0533 68.2444 34.52C68.2444 34.0133 67.991 33.64 67.4844 33.4C67.0044 33.1333 66.3777 32.92 65.6044 32.76C64.8577 32.5733 64.0444 32.3867 63.1644 32.2C62.311 31.9867 61.4977 31.68 60.7244 31.28C59.9777 30.88 59.351 30.32 58.8444 29.6C58.3644 28.8533 58.1244 27.8667 58.1244 26.64C58.1244 25.4933 58.351 24.5067 58.8044 23.68C59.2844 22.8533 59.8977 22.1733 60.6444 21.64C61.4177 21.1067 62.2977 20.72 63.2844 20.48C64.271 20.2133 65.271 20.08 66.2844 20.08C67.5644 20.08 68.8577 20.2667 70.1644 20.64C71.471 21.0133 72.5777 21.68 73.4844 22.64L69.8044 26.28ZM87.72 43.16C87.32 44.2 86.9333 45.12 86.56 45.92C86.1867 46.72 85.7067 47.3867 85.12 47.92C84.56 48.48 83.84 48.8933 82.96 49.16C82.08 49.4533 80.92 49.6 79.48 49.6C77.9333 49.6 76.44 49.36 75 48.88L75.8 43.96C76.7067 44.36 77.64 44.56 78.6 44.56C79.2667 44.56 79.8133 44.48 80.24 44.32C80.6667 44.1867 81.0133 43.9733 81.28 43.68C81.5733 43.4133 81.8133 43.08 82 42.68C82.1867 42.28 82.3867 41.8133 82.6 41.28L83.04 40.16L74.52 20.56H81L86 33.4H86.08L90.36 20.56H96.52L87.72 43.16ZM106.667 32.44H96.8266V27.64H106.667V32.44Z" fill="#2B72A8"/>
<path d="M110.88 12.68H121.84C123.28 12.68 124.64 12.8267 125.92 13.12C127.227 13.3867 128.36 13.8533 129.32 14.52C130.307 15.16 131.08 16.04 131.64 17.16C132.227 18.2533 132.52 19.6267 132.52 21.28C132.52 23.28 132 24.9867 130.96 26.4C129.92 27.7867 128.4 28.6667 126.4 29.04L133.6 41H126.12L120.2 29.68H117.12V41H110.88V12.68ZM117.12 24.4H120.8C121.36 24.4 121.947 24.3867 122.56 24.36C123.2 24.3067 123.773 24.1867 124.28 24C124.787 23.7867 125.2 23.4667 125.52 23.04C125.867 22.6133 126.04 22.0133 126.04 21.24C126.04 20.52 125.893 19.9467 125.6 19.52C125.307 19.0933 124.933 18.7733 124.48 18.56C124.027 18.32 123.507 18.16 122.92 18.08C122.333 18 121.76 17.96 121.2 17.96H117.12V24.4ZM153.658 37.64C152.698 38.8667 151.484 39.8133 150.018 40.48C148.551 41.1467 147.031 41.48 145.458 41.48C143.964 41.48 142.551 41.24 141.218 40.76C139.911 40.28 138.764 39.6 137.778 38.72C136.818 37.8133 136.058 36.7333 135.498 35.48C134.938 34.2267 134.658 32.8267 134.658 31.28C134.658 29.7333 134.938 28.3333 135.498 27.08C136.058 25.8267 136.818 24.76 137.778 23.88C138.764 22.9733 139.911 22.28 141.218 21.8C142.551 21.32 143.964 21.08 145.458 21.08C146.844 21.08 148.098 21.32 149.218 21.8C150.364 22.28 151.324 22.9733 152.098 23.88C152.898 24.76 153.511 25.8267 153.938 27.08C154.364 28.3333 154.578 29.7333 154.578 31.28V33.16H140.658C140.898 34.3067 141.418 35.2267 142.218 35.92C143.018 36.5867 144.004 36.92 145.178 36.92C146.164 36.92 146.991 36.7067 147.658 36.28C148.351 35.8267 148.951 35.2533 149.458 34.56L153.658 37.64ZM148.578 29.08C148.604 28.0667 148.271 27.2 147.578 26.48C146.884 25.76 145.991 25.4 144.898 25.4C144.231 25.4 143.644 25.5067 143.138 25.72C142.631 25.9333 142.191 26.2133 141.818 26.56C141.471 26.88 141.191 27.2667 140.978 27.72C140.791 28.1467 140.684 28.6 140.658 29.08H148.578ZM169.626 38.56H169.546C168.88 39.6 167.986 40.3467 166.866 40.8C165.773 41.2533 164.613 41.48 163.386 41.48C162.48 41.48 161.6 41.3467 160.746 41.08C159.92 40.84 159.186 40.4667 158.546 39.96C157.906 39.4533 157.4 38.8267 157.026 38.08C156.653 37.3333 156.466 36.4667 156.466 35.48C156.466 34.36 156.666 33.4133 157.066 32.64C157.493 31.8667 158.053 31.2267 158.746 30.72C159.466 30.2133 160.28 29.8267 161.186 29.56C162.093 29.2667 163.026 29.0533 163.986 28.92C164.973 28.7867 165.946 28.7067 166.906 28.68C167.893 28.6533 168.8 28.64 169.626 28.64C169.626 27.5733 169.24 26.7333 168.466 26.12C167.72 25.48 166.826 25.16 165.786 25.16C164.8 25.16 163.893 25.3733 163.066 25.8C162.266 26.2 161.546 26.76 160.906 27.48L157.706 24.2C158.826 23.16 160.133 22.3867 161.626 21.88C163.12 21.3467 164.666 21.08 166.266 21.08C168.026 21.08 169.466 21.3067 170.586 21.76C171.733 22.1867 172.64 22.8267 173.306 23.68C174 24.5333 174.48 25.5867 174.746 26.84C175.013 28.0667 175.146 29.4933 175.146 31.12V41H169.626V38.56ZM168.146 32.48C167.693 32.48 167.12 32.5067 166.426 32.56C165.76 32.5867 165.106 32.6933 164.466 32.88C163.853 33.0667 163.32 33.3467 162.866 33.72C162.44 34.0933 162.226 34.6133 162.226 35.28C162.226 36 162.533 36.5333 163.146 36.88C163.76 37.2267 164.4 37.4 165.066 37.4C165.653 37.4 166.213 37.32 166.746 37.16C167.306 37 167.8 36.7733 168.226 36.48C168.653 36.1867 168.986 35.8133 169.226 35.36C169.493 34.9067 169.626 34.3733 169.626 33.76V32.48H168.146ZM198.511 41H192.991V38.44H192.911C192.671 38.7867 192.351 39.1467 191.951 39.52C191.577 39.8667 191.124 40.1867 190.591 40.48C190.084 40.7733 189.511 41.0133 188.871 41.2C188.257 41.3867 187.617 41.48 186.951 41.48C185.511 41.48 184.204 41.24 183.031 40.76C181.857 40.2533 180.844 39.56 179.991 38.68C179.164 37.7733 178.524 36.7067 178.071 35.48C177.617 34.2533 177.391 32.9067 177.391 31.44C177.391 30.08 177.591 28.7867 177.991 27.56C178.417 26.3067 179.004 25.2 179.751 24.24C180.524 23.28 181.457 22.52 182.551 21.96C183.644 21.3733 184.884 21.08 186.271 21.08C187.524 21.08 188.684 21.28 189.751 21.68C190.844 22.0533 191.737 22.7067 192.431 23.64H192.511V10.76H198.511V41ZM192.991 31.28C192.991 29.8133 192.564 28.6267 191.711 27.72C190.884 26.8133 189.711 26.36 188.191 26.36C186.671 26.36 185.484 26.8133 184.631 27.72C183.804 28.6267 183.391 29.8133 183.391 31.28C183.391 32.7467 183.804 33.9333 184.631 34.84C185.484 35.7467 186.671 36.2 188.191 36.2C189.711 36.2 190.884 35.7467 191.711 34.84C192.564 33.9333 192.991 32.7467 192.991 31.28ZM201.746 35L211.826 26.36H201.986V21.56H218.786V27.32L208.226 36.2H219.026V41H201.746V35ZM232.906 44.16C232.506 45.2 232.119 46.12 231.746 46.92C231.373 47.72 230.893 48.3867 230.306 48.92C229.746 49.48 229.026 49.8933 228.146 50.16C227.266 50.4533 226.106 50.6 224.666 50.6C223.119 50.6 221.626 50.36 220.186 49.88L220.986 44.96C221.893 45.36 222.826 45.56 223.786 45.56C224.453 45.56 224.999 45.48 225.426 45.32C225.853 45.1867 226.199 44.9733 226.466 44.68C226.759 44.4133 226.999 44.08 227.186 43.68C227.373 43.28 227.573 42.8133 227.786 42.28L228.226 41.16L219.706 21.56H226.186L231.186 34.4H231.266L235.546 21.56H241.706L232.906 44.16Z" fill="white"/>
</svg>
